<svg width="35" height="37" viewBox="0 0 35 37" fill="none" xmlns="http://www.w3.org/2000/svg">
<path d="M24.077 28.505L17.512 14.298L13.143 23.822C13.7632 24.3551 14.4678 24.7813 15.228 25.083C15.9301 25.3002 16.6634 25.3993 17.398 25.376L16.245 22.891L17.684 19.755L19.696 24.13L20.996 26.971C20.029 27.3636 19.0024 27.5894 17.96 27.639H17.891C17.765 27.645 17.639 27.651 17.511 27.651C15.8316 27.6428 14.1818 27.2075 12.717 26.386L12.078 26.025L10.946 28.5H8C8 28.5 17.232 8.683 17.525 8C19.116 11.439 25.416 25.1 26.988 28.5L24.077 28.505Z" fill="white"/>
</svg>
