<svg width="44" height="44" viewBox="0 0 44 44" fill="none" xmlns="http://www.w3.org/2000/svg">
<rect width="44" height="44" rx="22" fill="#014FE0"/>
<path d="M13.464 26.828C12 25.657 12 24.771 12 21C12 17.229 12 15.343 13.464 14.172C14.93 13 17.286 13 22 13C26.714 13 29.071 13 30.535 14.172C31.999 15.344 32 17.229 32 21C32 24.771 32 25.657 30.535 26.828C29.072 28 26.714 28 22 28C19.49 28 18.2 29.738 16 31V27.788C14.906 27.625 14.101 27.338 13.464 26.828Z" fill="white" stroke="white" stroke-width="1.5" stroke-linecap="round" stroke-linejoin="round"/>
</svg>
