<svg width="224" height="44" viewBox="0 0 224 44" fill="none" xmlns="http://www.w3.org/2000/svg">
<rect y="1" width="164" height="42" rx="16" fill="#DFDFDF"/>
<path d="M17.336 17.27V18.572H14.746V27H13.15V18.572H10.546V17.27H17.336ZM18.7003 23.108C18.7003 22.3333 18.859 21.6473 19.1763 21.05C19.503 20.4527 19.9417 19.9907 20.4923 19.664C21.0523 19.328 21.6683 19.16 22.3403 19.16C22.947 19.16 23.4743 19.2813 23.9223 19.524C24.3797 19.7573 24.7437 20.0513 25.0143 20.406V19.286H26.6243V27H25.0143V25.852C24.7437 26.216 24.375 26.5193 23.9083 26.762C23.4417 27.0047 22.9097 27.126 22.3123 27.126C21.6497 27.126 21.043 26.958 20.4923 26.622C19.9417 26.2767 19.503 25.8007 19.1763 25.194C18.859 24.578 18.7003 23.8827 18.7003 23.108ZM25.0143 23.136C25.0143 22.604 24.9023 22.142 24.6783 21.75C24.4637 21.358 24.179 21.0593 23.8243 20.854C23.4697 20.6487 23.087 20.546 22.6763 20.546C22.2657 20.546 21.883 20.6487 21.5283 20.854C21.1737 21.05 20.8843 21.344 20.6603 21.736C20.4457 22.1187 20.3383 22.576 20.3383 23.108C20.3383 23.64 20.4457 24.1067 20.6603 24.508C20.8843 24.9093 21.1737 25.2173 21.5283 25.432C21.8923 25.6373 22.275 25.74 22.6763 25.74C23.087 25.74 23.4697 25.6373 23.8243 25.432C24.179 25.2267 24.4637 24.928 24.6783 24.536C24.9023 24.1347 25.0143 23.668 25.0143 23.136ZM30.5966 16.64V27H29.0006V16.64H30.5966ZM36.024 23.15L39.58 27H37.424L34.568 23.682V27H32.972V16.64H34.568V22.66L37.368 19.286H39.58L36.024 23.15ZM46.7827 20.588V24.858C46.7827 25.1473 46.848 25.3573 46.9787 25.488C47.1187 25.6093 47.352 25.67 47.6787 25.67H48.6587V27H47.3987C46.68 27 46.1294 26.832 45.7467 26.496C45.364 26.16 45.1727 25.614 45.1727 24.858V20.588H44.2627V19.286H45.1727V17.368H46.7827V19.286H48.6587V20.588H46.7827ZM53.7557 27.126C53.0277 27.126 52.3697 26.9627 51.7817 26.636C51.1937 26.3 50.7317 25.8333 50.3957 25.236C50.0597 24.6293 49.8917 23.9293 49.8917 23.136C49.8917 22.352 50.0644 21.6567 50.4097 21.05C50.755 20.4433 51.2264 19.9767 51.8237 19.65C52.421 19.3233 53.0884 19.16 53.8257 19.16C54.563 19.16 55.2304 19.3233 55.8277 19.65C56.425 19.9767 56.8964 20.4433 57.2417 21.05C57.587 21.6567 57.7597 22.352 57.7597 23.136C57.7597 23.92 57.5824 24.6153 57.2277 25.222C56.873 25.8287 56.3877 26.3 55.7717 26.636C55.165 26.9627 54.493 27.126 53.7557 27.126ZM53.7557 25.74C54.1664 25.74 54.549 25.642 54.9037 25.446C55.2677 25.25 55.5617 24.956 55.7857 24.564C56.0097 24.172 56.1217 23.696 56.1217 23.136C56.1217 22.576 56.0144 22.1047 55.7997 21.722C55.585 21.33 55.3004 21.036 54.9457 20.84C54.591 20.644 54.2084 20.546 53.7977 20.546C53.387 20.546 53.0044 20.644 52.6497 20.84C52.3044 21.036 52.029 21.33 51.8237 21.722C51.6184 22.1047 51.5157 22.576 51.5157 23.136C51.5157 23.9667 51.7257 24.6107 52.1457 25.068C52.575 25.516 53.1117 25.74 53.7557 25.74ZM65.3961 20.588V24.858C65.3961 25.1473 65.4615 25.3573 65.5921 25.488C65.7321 25.6093 65.9655 25.67 66.2921 25.67H67.2721V27H66.0121C65.2935 27 64.7428 26.832 64.3601 26.496C63.9775 26.16 63.7861 25.614 63.7861 24.858V20.588H62.8761V19.286H63.7861V17.368H65.3961V19.286H67.2721V20.588H65.3961ZM73.0131 19.16C73.6011 19.16 74.1238 19.286 74.5811 19.538C75.0478 19.79 75.4118 20.1633 75.6731 20.658C75.9438 21.1527 76.0791 21.75 76.0791 22.45V27H74.4971V22.688C74.4971 21.9973 74.3245 21.47 73.9791 21.106C73.6338 20.7327 73.1625 20.546 72.5651 20.546C71.9678 20.546 71.4918 20.7327 71.1371 21.106C70.7918 21.47 70.6191 21.9973 70.6191 22.688V27H69.0231V16.64H70.6191V20.182C70.8898 19.8553 71.2305 19.6033 71.6411 19.426C72.0611 19.2487 72.5185 19.16 73.0131 19.16ZM85.4649 22.954C85.4649 23.2433 85.4463 23.5047 85.4089 23.738H79.5149C79.5616 24.354 79.7903 24.8487 80.2009 25.222C80.6116 25.5953 81.1156 25.782 81.7129 25.782C82.5716 25.782 83.1783 25.4227 83.5329 24.704H85.2549C85.0216 25.4133 84.5969 25.9967 83.9809 26.454C83.3743 26.902 82.6183 27.126 81.7129 27.126C80.9756 27.126 80.3129 26.9627 79.7249 26.636C79.1463 26.3 78.6889 25.8333 78.3529 25.236C78.0263 24.6293 77.8629 23.9293 77.8629 23.136C77.8629 22.3427 78.0216 21.6473 78.3389 21.05C78.6656 20.4433 79.1183 19.9767 79.6969 19.65C80.2849 19.3233 80.9569 19.16 81.7129 19.16C82.4409 19.16 83.0896 19.3187 83.6589 19.636C84.2283 19.9533 84.6716 20.4013 84.9889 20.98C85.3063 21.5493 85.4649 22.2073 85.4649 22.954ZM83.7989 22.45C83.7896 21.862 83.5796 21.3907 83.1689 21.036C82.7583 20.6813 82.2496 20.504 81.6429 20.504C81.0923 20.504 80.6209 20.6813 80.2289 21.036C79.8369 21.3813 79.6036 21.8527 79.5289 22.45H83.7989ZM96.4403 22.002C96.9629 22.0953 97.4063 22.3707 97.7703 22.828C98.1343 23.2853 98.3163 23.8033 98.3163 24.382C98.3163 24.8767 98.1856 25.3247 97.9243 25.726C97.6723 26.118 97.3036 26.4307 96.8183 26.664C96.3329 26.888 95.7683 27 95.1243 27H91.2323V17.27H94.9423C95.6049 17.27 96.1743 17.382 96.6503 17.606C97.1263 17.83 97.4856 18.1333 97.7283 18.516C97.9709 18.8893 98.0923 19.3093 98.0923 19.776C98.0923 20.336 97.9429 20.8027 97.6443 21.176C97.3456 21.5493 96.9443 21.8247 96.4403 22.002ZM92.8283 21.358H94.8023C95.3249 21.358 95.7309 21.2413 96.0203 21.008C96.3189 20.7653 96.4683 20.42 96.4683 19.972C96.4683 19.5333 96.3189 19.1927 96.0203 18.95C95.7309 18.698 95.3249 18.572 94.8023 18.572H92.8283V21.358ZM94.9843 25.698C95.5256 25.698 95.9503 25.5673 96.2583 25.306C96.5663 25.0447 96.7203 24.6807 96.7203 24.214C96.7203 23.738 96.5569 23.36 96.2303 23.08C95.9036 22.8 95.4696 22.66 94.9283 22.66H92.8283V25.698H94.9843ZM107.317 19.286V27H105.721V26.09C105.469 26.4073 105.137 26.6593 104.727 26.846C104.325 27.0233 103.896 27.112 103.439 27.112C102.832 27.112 102.286 26.986 101.801 26.734C101.325 26.482 100.947 26.1087 100.667 25.614C100.396 25.1193 100.261 24.522 100.261 23.822V19.286H101.843V23.584C101.843 24.2747 102.015 24.8067 102.361 25.18C102.706 25.544 103.177 25.726 103.775 25.726C104.372 25.726 104.843 25.544 105.189 25.18C105.543 24.8067 105.721 24.2747 105.721 23.584V19.286H107.317ZM112.502 27.126C111.896 27.126 111.35 27.0187 110.864 26.804C110.388 26.58 110.01 26.2813 109.73 25.908C109.45 25.5253 109.301 25.1007 109.282 24.634H110.934C110.962 24.9607 111.116 25.236 111.396 25.46C111.686 25.6747 112.045 25.782 112.474 25.782C112.922 25.782 113.268 25.698 113.51 25.53C113.762 25.3527 113.888 25.1287 113.888 24.858C113.888 24.5687 113.748 24.354 113.468 24.214C113.198 24.074 112.764 23.92 112.166 23.752C111.588 23.5933 111.116 23.4393 110.752 23.29C110.388 23.1407 110.071 22.912 109.8 22.604C109.539 22.296 109.408 21.89 109.408 21.386C109.408 20.9753 109.53 20.602 109.772 20.266C110.015 19.9207 110.36 19.65 110.808 19.454C111.266 19.258 111.788 19.16 112.376 19.16C113.254 19.16 113.958 19.384 114.49 19.832C115.032 20.2707 115.321 20.8727 115.358 21.638H113.762C113.734 21.2927 113.594 21.0173 113.342 20.812C113.09 20.6067 112.75 20.504 112.32 20.504C111.9 20.504 111.578 20.5833 111.354 20.742C111.13 20.9007 111.018 21.1107 111.018 21.372C111.018 21.5773 111.093 21.75 111.242 21.89C111.392 22.03 111.574 22.142 111.788 22.226C112.003 22.3007 112.32 22.3987 112.74 22.52C113.3 22.6693 113.758 22.8233 114.112 22.982C114.476 23.1313 114.789 23.3553 115.05 23.654C115.312 23.9527 115.447 24.3493 115.456 24.844C115.456 25.2827 115.335 25.6747 115.092 26.02C114.85 26.3653 114.504 26.636 114.056 26.832C113.618 27.028 113.1 27.126 112.502 27.126ZM118.273 18.264C117.984 18.264 117.741 18.166 117.545 17.97C117.349 17.774 117.251 17.5313 117.251 17.242C117.251 16.9527 117.349 16.71 117.545 16.514C117.741 16.318 117.984 16.22 118.273 16.22C118.553 16.22 118.791 16.318 118.987 16.514C119.183 16.71 119.281 16.9527 119.281 17.242C119.281 17.5313 119.183 17.774 118.987 17.97C118.791 18.166 118.553 18.264 118.273 18.264ZM119.057 19.286V27H117.461V19.286H119.057ZM125.324 19.16C125.931 19.16 126.472 19.286 126.948 19.538C127.434 19.79 127.812 20.1633 128.082 20.658C128.353 21.1527 128.488 21.75 128.488 22.45V27H126.906V22.688C126.906 21.9973 126.734 21.47 126.388 21.106C126.043 20.7327 125.572 20.546 124.974 20.546C124.377 20.546 123.901 20.7327 123.546 21.106C123.201 21.47 123.028 21.9973 123.028 22.688V27H121.432V19.286H123.028V20.168C123.29 19.8507 123.621 19.6033 124.022 19.426C124.433 19.2487 124.867 19.16 125.324 19.16ZM137.874 22.954C137.874 23.2433 137.855 23.5047 137.818 23.738H131.924C131.971 24.354 132.199 24.8487 132.61 25.222C133.021 25.5953 133.525 25.782 134.122 25.782C134.981 25.782 135.587 25.4227 135.942 24.704H137.664C137.431 25.4133 137.006 25.9967 136.39 26.454C135.783 26.902 135.027 27.126 134.122 27.126C133.385 27.126 132.722 26.9627 132.134 26.636C131.555 26.3 131.098 25.8333 130.762 25.236C130.435 24.6293 130.272 23.9293 130.272 23.136C130.272 22.3427 130.431 21.6473 130.748 21.05C131.075 20.4433 131.527 19.9767 132.106 19.65C132.694 19.3233 133.366 19.16 134.122 19.16C134.85 19.16 135.499 19.3187 136.068 19.636C136.637 19.9533 137.081 20.4013 137.398 20.98C137.715 21.5493 137.874 22.2073 137.874 22.954ZM136.208 22.45C136.199 21.862 135.989 21.3907 135.578 21.036C135.167 20.6813 134.659 20.504 134.052 20.504C133.501 20.504 133.03 20.6813 132.638 21.036C132.246 21.3813 132.013 21.8527 131.938 22.45H136.208ZM142.525 27.126C141.918 27.126 141.372 27.0187 140.887 26.804C140.411 26.58 140.033 26.2813 139.753 25.908C139.473 25.5253 139.323 25.1007 139.305 24.634H140.957C140.985 24.9607 141.139 25.236 141.419 25.46C141.708 25.6747 142.067 25.782 142.497 25.782C142.945 25.782 143.29 25.698 143.533 25.53C143.785 25.3527 143.911 25.1287 143.911 24.858C143.911 24.5687 143.771 24.354 143.491 24.214C143.22 24.074 142.786 23.92 142.189 23.752C141.61 23.5933 141.139 23.4393 140.775 23.29C140.411 23.1407 140.093 22.912 139.823 22.604C139.561 22.296 139.431 21.89 139.431 21.386C139.431 20.9753 139.552 20.602 139.795 20.266C140.037 19.9207 140.383 19.65 140.831 19.454C141.288 19.258 141.811 19.16 142.399 19.16C143.276 19.16 143.981 19.384 144.513 19.832C145.054 20.2707 145.343 20.8727 145.381 21.638H143.785C143.757 21.2927 143.617 21.0173 143.365 20.812C143.113 20.6067 142.772 20.504 142.343 20.504C141.923 20.504 141.601 20.5833 141.377 20.742C141.153 20.9007 141.041 21.1107 141.041 21.372C141.041 21.5773 141.115 21.75 141.265 21.89C141.414 22.03 141.596 22.142 141.811 22.226C142.025 22.3007 142.343 22.3987 142.763 22.52C143.323 22.6693 143.78 22.8233 144.135 22.982C144.499 23.1313 144.811 23.3553 145.073 23.654C145.334 23.9527 145.469 24.3493 145.479 24.844C145.479 25.2827 145.357 25.6747 145.115 26.02C144.872 26.3653 144.527 26.636 144.079 26.832C143.64 27.028 143.122 27.126 142.525 27.126ZM150.283 27.126C149.677 27.126 149.131 27.0187 148.645 26.804C148.169 26.58 147.791 26.2813 147.511 25.908C147.231 25.5253 147.082 25.1007 147.063 24.634H148.715C148.743 24.9607 148.897 25.236 149.177 25.46C149.467 25.6747 149.826 25.782 150.255 25.782C150.703 25.782 151.049 25.698 151.291 25.53C151.543 25.3527 151.669 25.1287 151.669 24.858C151.669 24.5687 151.529 24.354 151.249 24.214C150.979 24.074 150.545 23.92 149.947 23.752C149.369 23.5933 148.897 23.4393 148.533 23.29C148.169 23.1407 147.852 22.912 147.581 22.604C147.32 22.296 147.189 21.89 147.189 21.386C147.189 20.9753 147.311 20.602 147.553 20.266C147.796 19.9207 148.141 19.65 148.589 19.454C149.047 19.258 149.569 19.16 150.157 19.16C151.035 19.16 151.739 19.384 152.271 19.832C152.813 20.2707 153.102 20.8727 153.139 21.638H151.543C151.515 21.2927 151.375 21.0173 151.123 20.812C150.871 20.6067 150.531 20.504 150.101 20.504C149.681 20.504 149.359 20.5833 149.135 20.742C148.911 20.9007 148.799 21.1107 148.799 21.372C148.799 21.5773 148.874 21.75 149.023 21.89C149.173 22.03 149.355 22.142 149.569 22.226C149.784 22.3007 150.101 22.3987 150.521 22.52C151.081 22.6693 151.539 22.8233 151.893 22.982C152.257 23.1313 152.57 23.3553 152.831 23.654C153.093 23.9527 153.228 24.3493 153.237 24.844C153.237 25.2827 153.116 25.6747 152.873 26.02C152.631 26.3653 152.285 26.636 151.837 26.832C151.399 27.028 150.881 27.126 150.283 27.126Z" fill="black"/>
<path d="M170.933 21.2L163.6 15.7C162.941 15.2056 162 15.676 162 16.5V27.5C162 28.324 162.941 28.7944 163.6 28.3L170.933 22.8C171.467 22.4 171.467 21.6 170.933 21.2Z" fill="#DFDFDF"/>
<g>
<rect x="180" width="44" height="44" rx="22" fill="#014FE0"/>
<path d="M193.464 26.828C192 25.657 192 24.771 192 21C192 17.229 192 15.343 193.464 14.172C194.93 13 197.286 13 202 13C206.714 13 209.071 13 210.535 14.172C211.999 15.344 212 17.229 212 21C212 24.771 212 25.657 210.535 26.828C209.072 28 206.714 28 202 28C199.49 28 198.2 29.738 196 31V27.788C194.906 27.625 194.101 27.338 193.464 26.828Z" fill="white" stroke="white" stroke-width="1.5" stroke-linecap="round" stroke-linejoin="round"/>
</g>
</svg>
