<svg width="172" height="42" viewBox="0 0 172 42" fill="none" xmlns="http://www.w3.org/2000/svg">
<rect width="164" height="42" rx="16" fill="#DFDFDF"/>
<path d="M17.336 16.27V17.572H14.746V26H13.15V17.572H10.546V16.27H17.336ZM18.7003 22.108C18.7003 21.3333 18.859 20.6473 19.1763 20.05C19.503 19.4527 19.9417 18.9907 20.4923 18.664C21.0523 18.328 21.6683 18.16 22.3403 18.16C22.947 18.16 23.4743 18.2813 23.9223 18.524C24.3797 18.7573 24.7437 19.0513 25.0143 19.406V18.286H26.6243V26H25.0143V24.852C24.7437 25.216 24.375 25.5193 23.9083 25.762C23.4417 26.0047 22.9097 26.126 22.3123 26.126C21.6497 26.126 21.043 25.958 20.4923 25.622C19.9417 25.2767 19.503 24.8007 19.1763 24.194C18.859 23.578 18.7003 22.8827 18.7003 22.108ZM25.0143 22.136C25.0143 21.604 24.9023 21.142 24.6783 20.75C24.4637 20.358 24.179 20.0593 23.8243 19.854C23.4697 19.6487 23.087 19.546 22.6763 19.546C22.2657 19.546 21.883 19.6487 21.5283 19.854C21.1737 20.05 20.8843 20.344 20.6603 20.736C20.4457 21.1187 20.3383 21.576 20.3383 22.108C20.3383 22.64 20.4457 23.1067 20.6603 23.508C20.8843 23.9093 21.1737 24.2173 21.5283 24.432C21.8923 24.6373 22.275 24.74 22.6763 24.74C23.087 24.74 23.4697 24.6373 23.8243 24.432C24.179 24.2267 24.4637 23.928 24.6783 23.536C24.9023 23.1347 25.0143 22.668 25.0143 22.136ZM30.5966 15.64V26H29.0006V15.64H30.5966ZM36.024 22.15L39.58 26H37.424L34.568 22.682V26H32.972V15.64H34.568V21.66L37.368 18.286H39.58L36.024 22.15ZM46.7827 19.588V23.858C46.7827 24.1473 46.848 24.3573 46.9787 24.488C47.1187 24.6093 47.352 24.67 47.6787 24.67H48.6587V26H47.3987C46.68 26 46.1294 25.832 45.7467 25.496C45.364 25.16 45.1727 24.614 45.1727 23.858V19.588H44.2627V18.286H45.1727V16.368H46.7827V18.286H48.6587V19.588H46.7827ZM53.7557 26.126C53.0277 26.126 52.3697 25.9627 51.7817 25.636C51.1937 25.3 50.7317 24.8333 50.3957 24.236C50.0597 23.6293 49.8917 22.9293 49.8917 22.136C49.8917 21.352 50.0644 20.6567 50.4097 20.05C50.755 19.4433 51.2264 18.9767 51.8237 18.65C52.421 18.3233 53.0884 18.16 53.8257 18.16C54.563 18.16 55.2304 18.3233 55.8277 18.65C56.425 18.9767 56.8964 19.4433 57.2417 20.05C57.587 20.6567 57.7597 21.352 57.7597 22.136C57.7597 22.92 57.5824 23.6153 57.2277 24.222C56.873 24.8287 56.3877 25.3 55.7717 25.636C55.165 25.9627 54.493 26.126 53.7557 26.126ZM53.7557 24.74C54.1664 24.74 54.549 24.642 54.9037 24.446C55.2677 24.25 55.5617 23.956 55.7857 23.564C56.0097 23.172 56.1217 22.696 56.1217 22.136C56.1217 21.576 56.0144 21.1047 55.7997 20.722C55.585 20.33 55.3004 20.036 54.9457 19.84C54.591 19.644 54.2084 19.546 53.7977 19.546C53.387 19.546 53.0044 19.644 52.6497 19.84C52.3044 20.036 52.029 20.33 51.8237 20.722C51.6184 21.1047 51.5157 21.576 51.5157 22.136C51.5157 22.9667 51.7257 23.6107 52.1457 24.068C52.575 24.516 53.1117 24.74 53.7557 24.74ZM65.3961 19.588V23.858C65.3961 24.1473 65.4615 24.3573 65.5921 24.488C65.7321 24.6093 65.9655 24.67 66.2921 24.67H67.2721V26H66.0121C65.2935 26 64.7428 25.832 64.3601 25.496C63.9775 25.16 63.7861 24.614 63.7861 23.858V19.588H62.8761V18.286H63.7861V16.368H65.3961V18.286H67.2721V19.588H65.3961ZM73.0131 18.16C73.6011 18.16 74.1238 18.286 74.5811 18.538C75.0478 18.79 75.4118 19.1633 75.6731 19.658C75.9438 20.1527 76.0791 20.75 76.0791 21.45V26H74.4971V21.688C74.4971 20.9973 74.3245 20.47 73.9791 20.106C73.6338 19.7327 73.1625 19.546 72.5651 19.546C71.9678 19.546 71.4918 19.7327 71.1371 20.106C70.7918 20.47 70.6191 20.9973 70.6191 21.688V26H69.0231V15.64H70.6191V19.182C70.8898 18.8553 71.2305 18.6033 71.6411 18.426C72.0611 18.2487 72.5185 18.16 73.0131 18.16ZM85.4649 21.954C85.4649 22.2433 85.4463 22.5047 85.4089 22.738H79.5149C79.5616 23.354 79.7903 23.8487 80.2009 24.222C80.6116 24.5953 81.1156 24.782 81.7129 24.782C82.5716 24.782 83.1783 24.4227 83.5329 23.704H85.2549C85.0216 24.4133 84.5969 24.9967 83.9809 25.454C83.3743 25.902 82.6183 26.126 81.7129 26.126C80.9756 26.126 80.3129 25.9627 79.7249 25.636C79.1463 25.3 78.6889 24.8333 78.3529 24.236C78.0263 23.6293 77.8629 22.9293 77.8629 22.136C77.8629 21.3427 78.0216 20.6473 78.3389 20.05C78.6656 19.4433 79.1183 18.9767 79.6969 18.65C80.2849 18.3233 80.9569 18.16 81.7129 18.16C82.4409 18.16 83.0896 18.3187 83.6589 18.636C84.2283 18.9533 84.6716 19.4013 84.9889 19.98C85.3063 20.5493 85.4649 21.2073 85.4649 21.954ZM83.7989 21.45C83.7896 20.862 83.5796 20.3907 83.1689 20.036C82.7583 19.6813 82.2496 19.504 81.6429 19.504C81.0923 19.504 80.6209 19.6813 80.2289 20.036C79.8369 20.3813 79.6036 20.8527 79.5289 21.45H83.7989ZM96.4403 21.002C96.9629 21.0953 97.4063 21.3707 97.7703 21.828C98.1343 22.2853 98.3163 22.8033 98.3163 23.382C98.3163 23.8767 98.1856 24.3247 97.9243 24.726C97.6723 25.118 97.3036 25.4307 96.8183 25.664C96.3329 25.888 95.7683 26 95.1243 26H91.2323V16.27H94.9423C95.6049 16.27 96.1743 16.382 96.6503 16.606C97.1263 16.83 97.4856 17.1333 97.7283 17.516C97.9709 17.8893 98.0923 18.3093 98.0923 18.776C98.0923 19.336 97.9429 19.8027 97.6443 20.176C97.3456 20.5493 96.9443 20.8247 96.4403 21.002ZM92.8283 20.358H94.8023C95.3249 20.358 95.7309 20.2413 96.0203 20.008C96.3189 19.7653 96.4683 19.42 96.4683 18.972C96.4683 18.5333 96.3189 18.1927 96.0203 17.95C95.7309 17.698 95.3249 17.572 94.8023 17.572H92.8283V20.358ZM94.9843 24.698C95.5256 24.698 95.9503 24.5673 96.2583 24.306C96.5663 24.0447 96.7203 23.6807 96.7203 23.214C96.7203 22.738 96.5569 22.36 96.2303 22.08C95.9036 21.8 95.4696 21.66 94.9283 21.66H92.8283V24.698H94.9843ZM107.317 18.286V26H105.721V25.09C105.469 25.4073 105.137 25.6593 104.727 25.846C104.325 26.0233 103.896 26.112 103.439 26.112C102.832 26.112 102.286 25.986 101.801 25.734C101.325 25.482 100.947 25.1087 100.667 24.614C100.396 24.1193 100.261 23.522 100.261 22.822V18.286H101.843V22.584C101.843 23.2747 102.015 23.8067 102.361 24.18C102.706 24.544 103.177 24.726 103.775 24.726C104.372 24.726 104.843 24.544 105.189 24.18C105.543 23.8067 105.721 23.2747 105.721 22.584V18.286H107.317ZM112.502 26.126C111.896 26.126 111.35 26.0187 110.864 25.804C110.388 25.58 110.01 25.2813 109.73 24.908C109.45 24.5253 109.301 24.1007 109.282 23.634H110.934C110.962 23.9607 111.116 24.236 111.396 24.46C111.686 24.6747 112.045 24.782 112.474 24.782C112.922 24.782 113.268 24.698 113.51 24.53C113.762 24.3527 113.888 24.1287 113.888 23.858C113.888 23.5687 113.748 23.354 113.468 23.214C113.198 23.074 112.764 22.92 112.166 22.752C111.588 22.5933 111.116 22.4393 110.752 22.29C110.388 22.1407 110.071 21.912 109.8 21.604C109.539 21.296 109.408 20.89 109.408 20.386C109.408 19.9753 109.53 19.602 109.772 19.266C110.015 18.9207 110.36 18.65 110.808 18.454C111.266 18.258 111.788 18.16 112.376 18.16C113.254 18.16 113.958 18.384 114.49 18.832C115.032 19.2707 115.321 19.8727 115.358 20.638H113.762C113.734 20.2927 113.594 20.0173 113.342 19.812C113.09 19.6067 112.75 19.504 112.32 19.504C111.9 19.504 111.578 19.5833 111.354 19.742C111.13 19.9007 111.018 20.1107 111.018 20.372C111.018 20.5773 111.093 20.75 111.242 20.89C111.392 21.03 111.574 21.142 111.788 21.226C112.003 21.3007 112.32 21.3987 112.74 21.52C113.3 21.6693 113.758 21.8233 114.112 21.982C114.476 22.1313 114.789 22.3553 115.05 22.654C115.312 22.9527 115.447 23.3493 115.456 23.844C115.456 24.2827 115.335 24.6747 115.092 25.02C114.85 25.3653 114.504 25.636 114.056 25.832C113.618 26.028 113.1 26.126 112.502 26.126ZM118.273 17.264C117.984 17.264 117.741 17.166 117.545 16.97C117.349 16.774 117.251 16.5313 117.251 16.242C117.251 15.9527 117.349 15.71 117.545 15.514C117.741 15.318 117.984 15.22 118.273 15.22C118.553 15.22 118.791 15.318 118.987 15.514C119.183 15.71 119.281 15.9527 119.281 16.242C119.281 16.5313 119.183 16.774 118.987 16.97C118.791 17.166 118.553 17.264 118.273 17.264ZM119.057 18.286V26H117.461V18.286H119.057ZM125.324 18.16C125.931 18.16 126.472 18.286 126.948 18.538C127.434 18.79 127.812 19.1633 128.082 19.658C128.353 20.1527 128.488 20.75 128.488 21.45V26H126.906V21.688C126.906 20.9973 126.734 20.47 126.388 20.106C126.043 19.7327 125.572 19.546 124.974 19.546C124.377 19.546 123.901 19.7327 123.546 20.106C123.201 20.47 123.028 20.9973 123.028 21.688V26H121.432V18.286H123.028V19.168C123.29 18.8507 123.621 18.6033 124.022 18.426C124.433 18.2487 124.867 18.16 125.324 18.16ZM137.874 21.954C137.874 22.2433 137.855 22.5047 137.818 22.738H131.924C131.971 23.354 132.199 23.8487 132.61 24.222C133.021 24.5953 133.525 24.782 134.122 24.782C134.981 24.782 135.587 24.4227 135.942 23.704H137.664C137.431 24.4133 137.006 24.9967 136.39 25.454C135.783 25.902 135.027 26.126 134.122 26.126C133.385 26.126 132.722 25.9627 132.134 25.636C131.555 25.3 131.098 24.8333 130.762 24.236C130.435 23.6293 130.272 22.9293 130.272 22.136C130.272 21.3427 130.431 20.6473 130.748 20.05C131.075 19.4433 131.527 18.9767 132.106 18.65C132.694 18.3233 133.366 18.16 134.122 18.16C134.85 18.16 135.499 18.3187 136.068 18.636C136.637 18.9533 137.081 19.4013 137.398 19.98C137.715 20.5493 137.874 21.2073 137.874 21.954ZM136.208 21.45C136.199 20.862 135.989 20.3907 135.578 20.036C135.167 19.6813 134.659 19.504 134.052 19.504C133.501 19.504 133.03 19.6813 132.638 20.036C132.246 20.3813 132.013 20.8527 131.938 21.45H136.208ZM142.525 26.126C141.918 26.126 141.372 26.0187 140.887 25.804C140.411 25.58 140.033 25.2813 139.753 24.908C139.473 24.5253 139.323 24.1007 139.305 23.634H140.957C140.985 23.9607 141.139 24.236 141.419 24.46C141.708 24.6747 142.067 24.782 142.497 24.782C142.945 24.782 143.29 24.698 143.533 24.53C143.785 24.3527 143.911 24.1287 143.911 23.858C143.911 23.5687 143.771 23.354 143.491 23.214C143.22 23.074 142.786 22.92 142.189 22.752C141.61 22.5933 141.139 22.4393 140.775 22.29C140.411 22.1407 140.093 21.912 139.823 21.604C139.561 21.296 139.431 20.89 139.431 20.386C139.431 19.9753 139.552 19.602 139.795 19.266C140.037 18.9207 140.383 18.65 140.831 18.454C141.288 18.258 141.811 18.16 142.399 18.16C143.276 18.16 143.981 18.384 144.513 18.832C145.054 19.2707 145.343 19.8727 145.381 20.638H143.785C143.757 20.2927 143.617 20.0173 143.365 19.812C143.113 19.6067 142.772 19.504 142.343 19.504C141.923 19.504 141.601 19.5833 141.377 19.742C141.153 19.9007 141.041 20.1107 141.041 20.372C141.041 20.5773 141.115 20.75 141.265 20.89C141.414 21.03 141.596 21.142 141.811 21.226C142.025 21.3007 142.343 21.3987 142.763 21.52C143.323 21.6693 143.78 21.8233 144.135 21.982C144.499 22.1313 144.811 22.3553 145.073 22.654C145.334 22.9527 145.469 23.3493 145.479 23.844C145.479 24.2827 145.357 24.6747 145.115 25.02C144.872 25.3653 144.527 25.636 144.079 25.832C143.64 26.028 143.122 26.126 142.525 26.126ZM150.283 26.126C149.677 26.126 149.131 26.0187 148.645 25.804C148.169 25.58 147.791 25.2813 147.511 24.908C147.231 24.5253 147.082 24.1007 147.063 23.634H148.715C148.743 23.9607 148.897 24.236 149.177 24.46C149.467 24.6747 149.826 24.782 150.255 24.782C150.703 24.782 151.049 24.698 151.291 24.53C151.543 24.3527 151.669 24.1287 151.669 23.858C151.669 23.5687 151.529 23.354 151.249 23.214C150.979 23.074 150.545 22.92 149.947 22.752C149.369 22.5933 148.897 22.4393 148.533 22.29C148.169 22.1407 147.852 21.912 147.581 21.604C147.32 21.296 147.189 20.89 147.189 20.386C147.189 19.9753 147.311 19.602 147.553 19.266C147.796 18.9207 148.141 18.65 148.589 18.454C149.047 18.258 149.569 18.16 150.157 18.16C151.035 18.16 151.739 18.384 152.271 18.832C152.813 19.2707 153.102 19.8727 153.139 20.638H151.543C151.515 20.2927 151.375 20.0173 151.123 19.812C150.871 19.6067 150.531 19.504 150.101 19.504C149.681 19.504 149.359 19.5833 149.135 19.742C148.911 19.9007 148.799 20.1107 148.799 20.372C148.799 20.5773 148.874 20.75 149.023 20.89C149.173 21.03 149.355 21.142 149.569 21.226C149.784 21.3007 150.101 21.3987 150.521 21.52C151.081 21.6693 151.539 21.8233 151.893 21.982C152.257 22.1313 152.57 22.3553 152.831 22.654C153.093 22.9527 153.228 23.3493 153.237 23.844C153.237 24.2827 153.116 24.6747 152.873 25.02C152.631 25.3653 152.285 25.636 151.837 25.832C151.399 26.028 150.881 26.126 150.283 26.126Z" fill="black"/>
<path d="M170.933 20.2L163.6 14.7C162.941 14.2056 162 14.676 162 15.5V26.5C162 27.324 162.941 27.7944 163.6 27.3L170.933 21.8C171.467 21.4 171.467 20.6 170.933 20.2Z" fill="#DFDFDF"/>
</svg>
